STARTFONT 2.1
FONT -FontForge-SF Digital Readout-Demi-I-Normal--24-240-75-75-P-90-ISO10646-1
SIZE 24 75 75
FONTBOUNDINGBOX 14 23 0 -4
COMMENT "Generated by fontforge, http://fontforge.sourceforge.net"
COMMENT "Copyright (c) 2008 by ShyFoundry. All rights reserved. Freeware for personal use only. To purchase a commercial license, please visit our site at http://www.shyfoundry.com."
STARTPROPERTIES 39
FOUNDRY "FontForge"
FAMILY_NAME "SF Digital Readout"
WEIGHT_NAME "Demi"
SLANT "I"
SETWIDTH_NAME "Normal"
ADD_STYLE_NAME ""
PIXEL_SIZE 24
POINT_SIZE 240
RESOLUTION_X 75
RESOLUTION_Y 75
SPACING "P"
AVERAGE_WIDTH 90
CHARSET_REGISTRY "ISO10646"
CHARSET_ENCODING "1"
FONTNAME_REGISTRY ""
CHARSET_COLLECTIONS "ISO10646-1"
FONT_NAME "SFDigitalReadout-Medium"
FACE_NAME "SF Digital Readout Medium"
COPYRIGHT "Copyright (c) 2008 by ShyFoundry. All rights reserved. Freeware for personal use only. To purchase a commercial license, please visit our site at http://www.shyfoundry.com."
FONT_VERSION "2.1"
FONT_ASCENT 19
FONT_DESCENT 5
UNDERLINE_POSITION -2
UNDERLINE_THICKNESS 1
X_HEIGHT 12
CAP_HEIGHT 12
RAW_ASCENT 799
RAW_DESCENT 200
NORM_SPACE 9
RELATIVE_WEIGHT 55
RELATIVE_SETWIDTH 50
SUPERSCRIPT_X 0
SUPERSCRIPT_Y 10
SUPERSCRIPT_SIZE 15
SUBSCRIPT_X 0
SUBSCRIPT_Y 3
SUBSCRIPT_SIZE 15
AVG_LOWERCASE_WIDTH 91
AVG_UPPERCASE_WIDTH 91
ENDPROPERTIES
CHARS 215
STARTCHAR space
ENCODING 32
SWIDTH 366 0
DWIDTH 9 0
BBX 1 1 0 0
BITMAP
00
ENDCHAR
STARTCHAR exclam
ENCODING 33
SWIDTH 366 0
DWIDTH 9 0
BBX 2 13 3 0
BITMAP
C0
C0
C0
C0
C0
00
C0
C0
C0
C0
00
00
C0
ENDCHAR
STARTCHAR quotedbl
ENCODING 34
SWIDTH 366 0
DWIDTH 9 0
BBX 3 1 3 12
BITMAP
E0
ENDCHAR
STARTCHAR numbersign
ENCODING 35
SWIDTH 366 0
DWIDTH 9 0
BBX 8 7 0 6
BITMAP
36
FF
36
36
FF
36
36
ENDCHAR
STARTCHAR dollar
ENCODING 36
SWIDTH 366 0
DWIDTH 10 0
BBX 8 18 1 -2
BITMAP
18
00
00
FC
D8
D8
D8
D8
FE
1B
1B
1B
1B
1B
03
FC
00
18
ENDCHAR
STARTCHAR percent
ENCODING 37
SWIDTH 366 0
DWIDTH 9 0
BBX 5 13 2 0
BITMAP
C0
88
08
08
10
20
00
40
40
80
90
B8
10
ENDCHAR
STARTCHAR ampersand
ENCODING 38
SWIDTH 366 0
DWIDTH 9 0
BBX 7 13 1 0
BITMAP
FC
C0
C0
C0
C0
E0
C6
C6
C6
C6
C6
C6
FC
ENDCHAR
STARTCHAR quotesingle
ENCODING 39
SWIDTH 366 0
DWIDTH 9 0
BBX 1 1 4 12
BITMAP
80
ENDCHAR
STARTCHAR parenleft
ENCODING 40
SWIDTH 366 0
DWIDTH 9 0
BBX 4 13 0 0
BITMAP
F0
C0
C0
C0
C0
80
C0
C0
C0
C0
C0
C0
70
ENDCHAR
STARTCHAR parenright
ENCODING 41
SWIDTH 366 0
DWIDTH 10 0
BBX 5 13 4 0
BITMAP
F8
18
18
18
18
08
18
18
18
18
18
18
E0
ENDCHAR
STARTCHAR asterisk
ENCODING 42
SWIDTH 366 0
DWIDTH 8 0
BBX 6 12 1 1
BITMAP
B8
B8
78
30
30
FC
30
30
30
78
B8
B8
ENDCHAR
STARTCHAR plus
ENCODING 43
SWIDTH 366 0
DWIDTH 9 0
BBX 6 12 1 1
BITMAP
30
30
30
30
30
FC
30
30
30
30
30
30
ENDCHAR
STARTCHAR comma
ENCODING 44
SWIDTH 366 0
DWIDTH 9 0
BBX 1 2 4 -1
BITMAP
80
80
ENDCHAR
STARTCHAR hyphen
ENCODING 45
SWIDTH 366 0
DWIDTH 9 0
BBX 6 1 1 7
BITMAP
FC
ENDCHAR
STARTCHAR period
ENCODING 46
SWIDTH 366 0
DWIDTH 9 0
BBX 1 1 4 0
BITMAP
80
ENDCHAR
STARTCHAR slash
ENCODING 47
SWIDTH 366 0
DWIDTH 9 0
BBX 5 12 2 1
BITMAP
08
08
08
10
20
00
00
40
40
80
80
80
ENDCHAR
STARTCHAR zero
ENCODING 48
SWIDTH 366 0
DWIDTH 9 0
BBX 7 13 1 0
BITMAP
FE
C6
C6
C6
C6
82
C6
C6
C6
C6
C6
C6
FC
ENDCHAR
STARTCHAR one
ENCODING 49
SWIDTH 366 0
DWIDTH 10 0
BBX 2 12 7 1
BITMAP
C0
C0
C0
C0
C0
C0
C0
C0
C0
C0
C0
C0
ENDCHAR
STARTCHAR two
ENCODING 50
SWIDTH 366 0
DWIDTH 9 0
BBX 7 13 1 0
BITMAP
FE
06
06
06
06
FE
C0
C0
C0
C0
C0
C0
FC
ENDCHAR
STARTCHAR three
ENCODING 51
SWIDTH 366 0
DWIDTH 10 0
BBX 8 13 1 0
BITMAP
FF
03
03
03
03
FD
03
03
03
03
03
03
FC
ENDCHAR
STARTCHAR four
ENCODING 52
SWIDTH 366 0
DWIDTH 9 0
BBX 7 12 1 1
BITMAP
C6
C6
C6
C6
C6
FE
06
06
06
06
06
06
ENDCHAR
STARTCHAR five
ENCODING 53
SWIDTH 366 0
DWIDTH 9 0
BBX 7 13 1 0
BITMAP
FC
C0
C0
C0
C0
FC
06
06
06
06
06
06
FC
ENDCHAR
STARTCHAR six
ENCODING 54
SWIDTH 366 0
DWIDTH 9 0
BBX 7 13 1 0
BITMAP
FC
C0
C0
C0
C0
FC
C6
C6
C6
C6
C6
C6
FC
ENDCHAR
STARTCHAR seven
ENCODING 55
SWIDTH 366 0
DWIDTH 10 0
BBX 8 12 1 1
BITMAP
FF
03
03
03
03
01
03
03
03
03
03
03
ENDCHAR
STARTCHAR eight
ENCODING 56
SWIDTH 366 0
DWIDTH 9 0
BBX 7 13 1 0
BITMAP
FE
C6
C6
C6
C6
FE
C6
C6
C6
C6
C6
C6
FC
ENDCHAR
STARTCHAR nine
ENCODING 57
SWIDTH 366 0
DWIDTH 9 0
BBX 7 13 1 0
BITMAP
FE
C6
C6
C6
C6
FE
06
06
06
06
06
06
FC
ENDCHAR
STARTCHAR colon
ENCODING 58
SWIDTH 366 0
DWIDTH 9 0
BBX 1 7 4 0
BITMAP
80
00
00
00
00
00
80
ENDCHAR
STARTCHAR semicolon
ENCODING 59
SWIDTH 366 0
DWIDTH 9 0
BBX 1 8 4 -1
BITMAP
80
00
00
00
00
00
80
80
ENDCHAR
STARTCHAR less
ENCODING 60
SWIDTH 366 0
DWIDTH 9 0
BBX 2 12 3 1
BITMAP
40
40
40
80
80
00
00
80
80
40
40
40
ENDCHAR
STARTCHAR equal
ENCODING 61
SWIDTH 366 0
DWIDTH 9 0
BBX 6 4 1 5
BITMAP
FC
00
00
FC
ENDCHAR
STARTCHAR greater
ENCODING 62
SWIDTH 366 0
DWIDTH 9 0
BBX 2 12 3 1
BITMAP
80
80
40
40
40
00
00
40
40
40
80
80
ENDCHAR
STARTCHAR question
ENCODING 63
SWIDTH 366 0
DWIDTH 9 0
BBX 7 13 1 0
BITMAP
FE
06
06
06
06
1E
10
10
10
10
00
00
10
ENDCHAR
STARTCHAR at
ENCODING 64
SWIDTH 366 0
DWIDTH 10 0
BBX 8 13 1 0
BITMAP
FF
DB
DB
DB
DB
9D
C0
C0
C0
C0
C0
C0
FC
ENDCHAR
STARTCHAR A
ENCODING 65
SWIDTH 366 0
DWIDTH 9 0
BBX 7 12 1 1
BITMAP
FE
C6
C6
C6
C6
FE
C6
C6
C6
C6
C6
C6
ENDCHAR
STARTCHAR B
ENCODING 66
SWIDTH 366 0
DWIDTH 9 0
BBX 7 13 1 0
BITMAP
FE
1E
1E
1E
1E
0E
1E
1E
1E
1E
1E
06
FC
ENDCHAR
STARTCHAR C
ENCODING 67
SWIDTH 366 0
DWIDTH 9 0
BBX 7 13 0 0
BITMAP
FE
C0
C0
C0
C0
80
C0
C0
C0
C0
C0
C0
7E
ENDCHAR
STARTCHAR D
ENCODING 68
SWIDTH 366 0
DWIDTH 9 0
BBX 7 13 1 0
BITMAP
FE
1E
1E
1E
1E
1A
1E
1E
1E
1E
1E
1E
FC
ENDCHAR
STARTCHAR E
ENCODING 69
SWIDTH 366 0
DWIDTH 9 0
BBX 7 13 0 0
BITMAP
FE
C0
C0
C0
C0
FE
C0
C0
C0
C0
C0
C0
7E
ENDCHAR
STARTCHAR F
ENCODING 70
SWIDTH 366 0
DWIDTH 9 0
BBX 7 12 0 1
BITMAP
FE
C0
C0
C0
C0
FE
C0
C0
C0
C0
C0
C0
ENDCHAR
STARTCHAR G
ENCODING 71
SWIDTH 366 0
DWIDTH 9 0
BBX 7 13 1 0
BITMAP
FC
C0
C0
C0
C0
9C
C6
C6
C6
C6
C6
C6
FC
ENDCHAR
STARTCHAR H
ENCODING 72
SWIDTH 366 0
DWIDTH 9 0
BBX 7 12 1 1
BITMAP
C6
C6
C6
C6
C6
FE
C6
C6
C6
C6
C6
C6
ENDCHAR
STARTCHAR I
ENCODING 73
SWIDTH 366 0
DWIDTH 9 0
BBX 2 12 3 1
BITMAP
C0
C0
C0
C0
C0
00
00
C0
C0
C0
C0
C0
ENDCHAR
STARTCHAR J
ENCODING 74
SWIDTH 366 0
DWIDTH 9 0
BBX 7 13 1 0
BITMAP
06
06
06
06
06
06
C6
C6
C6
C6
C6
C6
FC
ENDCHAR
STARTCHAR K
ENCODING 75
SWIDTH 366 0
DWIDTH 9 0
BBX 7 12 0 1
BITMAP
C0
C2
C2
C4
C8
F0
C0
C8
C4
C2
C2
C0
ENDCHAR
STARTCHAR L
ENCODING 76
SWIDTH 366 0
DWIDTH 9 0
BBX 7 13 0 0
BITMAP
C0
C0
C0
C0
C0
C0
C0
C0
C0
C0
C0
C0
7E
ENDCHAR
STARTCHAR M
ENCODING 77
SWIDTH 366 0
DWIDTH 9 0
BBX 8 12 0 1
BITMAP
C3
C3
C7
E7
EB
C3
DB
DB
DB
DB
DB
DB
ENDCHAR
STARTCHAR N
ENCODING 78
SWIDTH 366 0
DWIDTH 9 0
BBX 7 12 1 1
BITMAP
FE
C6
C6
C6
C6
82
C6
C6
C6
C6
C6
C6
ENDCHAR
STARTCHAR O
ENCODING 79
SWIDTH 366 0
DWIDTH 9 0
BBX 7 13 1 0
BITMAP
FE
C6
C6
C6
C6
82
C6
C6
C6
C6
C6
C6
FC
ENDCHAR
STARTCHAR P
ENCODING 80
SWIDTH 366 0
DWIDTH 9 0
BBX 7 12 1 1
BITMAP
FE
C6
C6
C6
C6
FE
C0
C0
C0
C0
C0
C0
ENDCHAR
STARTCHAR Q
ENCODING 81
SWIDTH 366 0
DWIDTH 9 0
BBX 8 13 0 0
BITMAP
FF
C3
C3
C3
C3
81
C3
CB
CB
C7
C3
C3
7E
ENDCHAR
STARTCHAR R
ENCODING 82
SWIDTH 366 0
DWIDTH 9 0
BBX 7 12 1 1
BITMAP
FE
C6
C6
C6
C6
FE
C0
D0
C8
C8
C8
C4
ENDCHAR
STARTCHAR S
ENCODING 83
SWIDTH 366 0
DWIDTH 9 0
BBX 7 13 1 0
BITMAP
FC
C0
C0
C0
C0
FC
06
06
06
06
06
06
FC
ENDCHAR
STARTCHAR T
ENCODING 84
SWIDTH 366 0
DWIDTH 9 0
BBX 6 12 1 1
BITMAP
FC
30
30
30
30
30
00
30
30
30
30
30
ENDCHAR
STARTCHAR U
ENCODING 85
SWIDTH 366 0
DWIDTH 9 0
BBX 7 13 1 0
BITMAP
C6
C6
C6
C6
C6
C6
C6
C6
C6
C6
C6
C6
FC
ENDCHAR
STARTCHAR V
ENCODING 86
SWIDTH 366 0
DWIDTH 9 0
BBX 6 12 2 1
BITMAP
0C
8C
8C
4C
4C
0C
0C
2C
1C
1C
0C
0C
ENDCHAR
STARTCHAR W
ENCODING 87
SWIDTH 366 0
DWIDTH 9 0
BBX 8 12 0 1
BITMAP
4B
DB
DB
DB
DB
DB
C3
EB
E7
E7
C3
C3
ENDCHAR
STARTCHAR X
ENCODING 88
SWIDTH 366 0
DWIDTH 9 0
BBX 5 12 2 1
BITMAP
88
88
88
50
60
00
00
60
50
88
88
88
ENDCHAR
STARTCHAR Y
ENCODING 89
SWIDTH 366 0
DWIDTH 10 0
BBX 8 12 1 1
BITMAP
C3
C3
C3
C3
C3
FF
00
18
18
18
18
18
ENDCHAR
STARTCHAR Z
ENCODING 90
SWIDTH 366 0
DWIDTH 9 0
BBX 6 13 1 0
BITMAP
FC
04
04
04
08
10
00
20
20
40
40
80
FC
ENDCHAR
STARTCHAR bracketleft
ENCODING 91
SWIDTH 366 0
DWIDTH 9 0
BBX 4 13 0 0
BITMAP
F0
C0
C0
C0
C0
80
C0
C0
C0
C0
C0
C0
70
ENDCHAR
STARTCHAR backslash
ENCODING 92
SWIDTH 366 0
DWIDTH 9 0
BBX 5 12 2 1
BITMAP
80
80
80
40
40
00
00
20
10
08
08
08
ENDCHAR
STARTCHAR bracketright
ENCODING 93
SWIDTH 366 0
DWIDTH 10 0
BBX 5 13 4 0
BITMAP
F8
18
18
18
18
08
18
18
18
18
18
18
E0
ENDCHAR
STARTCHAR asciicircum
ENCODING 94
SWIDTH 366 0
DWIDTH 9 0
BBX 4 3 2 10
BITMAP
60
90
90
ENDCHAR
STARTCHAR underscore
ENCODING 95
SWIDTH 366 0
DWIDTH 9 0
BBX 6 1 1 0
BITMAP
FC
ENDCHAR
STARTCHAR grave
ENCODING 96
SWIDTH 366 0
DWIDTH 9 0
BBX 2 4 3 15
BITMAP
80
C0
40
40
ENDCHAR
STARTCHAR a
ENCODING 97
SWIDTH 366 0
DWIDTH 9 0
BBX 7 12 1 1
BITMAP
FE
C6
C6
C6
C6
FE
C6
C6
C6
C6
C6
C6
ENDCHAR
STARTCHAR b
ENCODING 98
SWIDTH 366 0
DWIDTH 9 0
BBX 7 13 1 0
BITMAP
FE
1E
1E
1E
1E
0E
1E
1E
1E
1E
1E
06
FC
ENDCHAR
STARTCHAR c
ENCODING 99
SWIDTH 366 0
DWIDTH 9 0
BBX 7 13 0 0
BITMAP
FE
C0
C0
C0
C0
80
C0
C0
C0
C0
C0
C0
7E
ENDCHAR
STARTCHAR d
ENCODING 100
SWIDTH 366 0
DWIDTH 9 0
BBX 7 13 1 0
BITMAP
FE
1E
1E
1E
1E
1A
1E
1E
1E
1E
1E
1E
FC
ENDCHAR
STARTCHAR e
ENCODING 101
SWIDTH 366 0
DWIDTH 9 0
BBX 7 13 0 0
BITMAP
FE
C0
C0
C0
C0
FE
C0
C0
C0
C0
C0
C0
7E
ENDCHAR
STARTCHAR f
ENCODING 102
SWIDTH 366 0
DWIDTH 9 0
BBX 7 12 0 1
BITMAP
FE
C0
C0
C0
C0
FE
C0
C0
C0
C0
C0
C0
ENDCHAR
STARTCHAR g
ENCODING 103
SWIDTH 366 0
DWIDTH 9 0
BBX 7 13 1 0
BITMAP
FC
C0
C0
C0
C0
9C
C6
C6
C6
C6
C6
C6
FC
ENDCHAR
STARTCHAR h
ENCODING 104
SWIDTH 366 0
DWIDTH 9 0
BBX 7 12 1 1
BITMAP
C6
C6
C6
C6
C6
FE
C6
C6
C6
C6
C6
C6
ENDCHAR
STARTCHAR i
ENCODING 105
SWIDTH 366 0
DWIDTH 9 0
BBX 2 12 3 1
BITMAP
C0
C0
C0
C0
C0
00
00
C0
C0
C0
C0
C0
ENDCHAR
STARTCHAR j
ENCODING 106
SWIDTH 366 0
DWIDTH 9 0
BBX 7 13 1 0
BITMAP
06
06
06
06
06
06
C6
C6
C6
C6
C6
C6
FC
ENDCHAR
STARTCHAR k
ENCODING 107
SWIDTH 366 0
DWIDTH 9 0
BBX 7 12 0 1
BITMAP
C0
C2
C2
C4
C8
F0
C0
C8
C4
C2
C2
C0
ENDCHAR
STARTCHAR l
ENCODING 108
SWIDTH 366 0
DWIDTH 9 0
BBX 7 13 0 0
BITMAP
C0
C0
C0
C0
C0
C0
C0
C0
C0
C0
C0
C0
7E
ENDCHAR
STARTCHAR m
ENCODING 109
SWIDTH 366 0
DWIDTH 9 0
BBX 8 12 0 1
BITMAP
C3
C3
C7
E7
EB
C3
DB
DB
DB
DB
DB
DB
ENDCHAR
STARTCHAR n
ENCODING 110
SWIDTH 366 0
DWIDTH 9 0
BBX 7 12 1 1
BITMAP
FE
C6
C6
C6
C6
82
C6
C6
C6
C6
C6
C6
ENDCHAR
STARTCHAR o
ENCODING 111
SWIDTH 366 0
DWIDTH 9 0
BBX 7 13 1 0
BITMAP
FE
C6
C6
C6
C6
82
C6
C6
C6
C6
C6
C6
FC
ENDCHAR
STARTCHAR p
ENCODING 112
SWIDTH 366 0
DWIDTH 9 0
BBX 7 12 1 1
BITMAP
FE
C6
C6
C6
C6
FE
C0
C0
C0
C0
C0
C0
ENDCHAR
STARTCHAR q
ENCODING 113
SWIDTH 366 0
DWIDTH 9 0
BBX 8 13 0 0
BITMAP
FF
C3
C3
C3
C3
81
C3
CB
CB
C7
C3
C3
7E
ENDCHAR
STARTCHAR r
ENCODING 114
SWIDTH 366 0
DWIDTH 9 0
BBX 7 12 1 1
BITMAP
FE
C6
C6
C6
C6
FE
C0
D0
C8
C8
C8
C4
ENDCHAR
STARTCHAR s
ENCODING 115
SWIDTH 366 0
DWIDTH 9 0
BBX 7 13 1 0
BITMAP
FC
C0
C0
C0
C0
FC
06
06
06
06
06
06
FC
ENDCHAR
STARTCHAR t
ENCODING 116
SWIDTH 366 0
DWIDTH 9 0
BBX 6 12 1 1
BITMAP
FC
30
30
30
30
30
00
30
30
30
30
30
ENDCHAR
STARTCHAR u
ENCODING 117
SWIDTH 366 0
DWIDTH 9 0
BBX 7 13 1 0
BITMAP
C6
C6
C6
C6
C6
C6
C6
C6
C6
C6
C6
C6
FC
ENDCHAR
STARTCHAR v
ENCODING 118
SWIDTH 366 0
DWIDTH 9 0
BBX 6 12 2 1
BITMAP
0C
8C
8C
4C
4C
0C
0C
2C
1C
1C
0C
0C
ENDCHAR
STARTCHAR w
ENCODING 119
SWIDTH 366 0
DWIDTH 9 0
BBX 8 12 0 1
BITMAP
4B
DB
DB
DB
DB
DB
C3
EB
E7
E7
C3
C3
ENDCHAR
STARTCHAR x
ENCODING 120
SWIDTH 366 0
DWIDTH 9 0
BBX 5 12 2 1
BITMAP
88
88
88
50
60
00
00
60
50
88
88
88
ENDCHAR
STARTCHAR y
ENCODING 121
SWIDTH 366 0
DWIDTH 10 0
BBX 8 12 1 1
BITMAP
C3
C3
C3
C3
C3
FF
00
18
18
18
18
18
ENDCHAR
STARTCHAR z
ENCODING 122
SWIDTH 366 0
DWIDTH 9 0
BBX 6 13 1 0
BITMAP
FC
04
04
04
08
10
00
20
20
40
40
80
FC
ENDCHAR
STARTCHAR braceleft
ENCODING 123
SWIDTH 366 0
DWIDTH 9 0
BBX 4 13 0 0
BITMAP
F0
C0
C0
C0
C0
80
C0
C0
C0
C0
C0
C0
70
ENDCHAR
STARTCHAR bar
ENCODING 124
SWIDTH 100 0
DWIDTH 3 0
BBX 2 12 0 1
BITMAP
C0
C0
C0
C0
C0
00
00
C0
C0
C0
C0
C0
ENDCHAR
STARTCHAR braceright
ENCODING 125
SWIDTH 366 0
DWIDTH 10 0
BBX 5 13 4 0
BITMAP
F8
18
18
18
18
08
18
18
18
18
18
18
E0
ENDCHAR
STARTCHAR asciitilde
ENCODING 126
SWIDTH 366 0
DWIDTH 9 0
BBX 3 1 3 12
BITMAP
E0
ENDCHAR
STARTCHAR quotesinglbase
ENCODING 130
SWIDTH 366 0
DWIDTH 9 0
BBX 1 2 4 -1
BITMAP
80
80
ENDCHAR
STARTCHAR quotedblbase
ENCODING 132
SWIDTH 366 0
DWIDTH 9 0
BBX 3 2 3 -1
BITMAP
E0
A0
ENDCHAR
STARTCHAR ellipsis
ENCODING 133
SWIDTH 366 0
DWIDTH 9 0
BBX 5 1 2 0
BITMAP
A8
ENDCHAR
STARTCHAR circumflex
ENCODING 136
SWIDTH 366 0
DWIDTH 9 0
BBX 4 4 2 15
BITMAP
40
60
90
90
ENDCHAR
STARTCHAR perthousand
ENCODING 137
SWIDTH 366 0
DWIDTH 9 0
BBX 6 13 2 0
BITMAP
C0
88
08
08
10
20
00
40
40
80
C8
AC
4C
ENDCHAR
STARTCHAR Scaron
ENCODING 138
SWIDTH 366 0
DWIDTH 9 0
BBX 7 19 1 0
BITMAP
88
48
30
20
00
00
FC
C0
C0
C0
C0
FC
06
06
06
06
06
06
FC
ENDCHAR
STARTCHAR guilsinglleft
ENCODING 139
SWIDTH 366 0
DWIDTH 9 0
BBX 2 12 3 1
BITMAP
40
40
40
80
80
00
00
80
80
40
40
40
ENDCHAR
STARTCHAR OE
ENCODING 140
SWIDTH 600 0
DWIDTH 14 0
BBX 13 13 1 0
BITMAP
FFF8
C600
C600
C600
C600
83F8
C600
C600
C600
C600
C600
C600
FDF8
ENDCHAR
STARTCHAR quoteleft
ENCODING 145
SWIDTH 366 0
DWIDTH 9 0
BBX 1 1 4 12
BITMAP
80
ENDCHAR
STARTCHAR quoteright
ENCODING 146
SWIDTH 366 0
DWIDTH 9 0
BBX 1 1 4 12
BITMAP
80
ENDCHAR
STARTCHAR quotedblleft
ENCODING 147
SWIDTH 366 0
DWIDTH 9 0
BBX 3 1 3 12
BITMAP
E0
ENDCHAR
STARTCHAR quotedblright
ENCODING 148
SWIDTH 366 0
DWIDTH 9 0
BBX 3 1 3 12
BITMAP
E0
ENDCHAR
STARTCHAR endash
ENCODING 150
SWIDTH 366 0
DWIDTH 9 0
BBX 3 1 1 7
BITMAP
E0
ENDCHAR
STARTCHAR emdash
ENCODING 151
SWIDTH 366 0
DWIDTH 9 0
BBX 6 1 1 7
BITMAP
FC
ENDCHAR
STARTCHAR tilde
ENCODING 152
SWIDTH 366 0
DWIDTH 9 0
BBX 3 2 3 15
BITMAP
60
C0
ENDCHAR
STARTCHAR scaron
ENCODING 154
SWIDTH 366 0
DWIDTH 9 0
BBX 7 19 1 0
BITMAP
88
48
30
20
00
00
FC
C0
C0
C0
C0
FC
06
06
06
06
06
06
FC
ENDCHAR
STARTCHAR guilsinglright
ENCODING 155
SWIDTH 366 0
DWIDTH 9 0
BBX 2 12 3 1
BITMAP
80
80
40
40
40
00
00
40
40
40
80
80
ENDCHAR
STARTCHAR oe
ENCODING 156
SWIDTH 600 0
DWIDTH 14 0
BBX 13 13 1 0
BITMAP
FFF8
C600
C600
C600
C600
83F8
C600
C600
C600
C600
C600
C600
FDF8
ENDCHAR
STARTCHAR Ydieresis
ENCODING 159
SWIDTH 366 0
DWIDTH 10 0
BBX 8 15 1 1
BITMAP
68
00
00
C3
C3
C3
C3
C3
FF
00
18
18
18
18
18
ENDCHAR
STARTCHAR nonbreakingspace
ENCODING 160
SWIDTH 366 0
DWIDTH 9 0
BBX 1 1 0 0
BITMAP
00
ENDCHAR
STARTCHAR exclamdown
ENCODING 161
SWIDTH 366 0
DWIDTH 9 0
BBX 2 12 3 1
BITMAP
C0
00
C0
C0
C0
C0
00
C0
C0
C0
C0
C0
ENDCHAR
STARTCHAR cent
ENCODING 162
SWIDTH 366 0
DWIDTH 9 0
BBX 6 11 1 5
BITMAP
30
00
00
FC
F0
F0
F0
F0
FC
30
30
ENDCHAR
STARTCHAR sterling
ENCODING 163
SWIDTH 366 0
DWIDTH 9 0
BBX 7 13 1 0
BITMAP
FE
C6
C6
C4
C0
E0
C0
C0
C0
C0
C0
C0
FC
ENDCHAR
STARTCHAR yen
ENCODING 165
SWIDTH 366 0
DWIDTH 10 0
BBX 8 12 1 1
BITMAP
C3
C3
C3
C3
C3
FF
00
18
18
18
18
18
ENDCHAR
STARTCHAR brokenbar
ENCODING 166
SWIDTH 100 0
DWIDTH 3 0
BBX 2 12 0 1
BITMAP
C0
C0
C0
C0
C0
00
00
C0
C0
C0
C0
C0
ENDCHAR
STARTCHAR dieresis
ENCODING 168
SWIDTH 366 0
DWIDTH 9 0
BBX 4 1 2 15
BITMAP
D0
ENDCHAR
STARTCHAR copyright
ENCODING 169
SWIDTH 366 0
DWIDTH 9 0
BBX 7 13 0 0
BITMAP
FE
C0
C0
C0
C0
80
C0
C0
C0
C0
C0
C0
7E
ENDCHAR
STARTCHAR guillemotleft
ENCODING 171
SWIDTH 366 0
DWIDTH 9 0
BBX 6 12 1 1
BITMAP
44
44
44
88
88
00
00
88
88
44
44
44
ENDCHAR
STARTCHAR minus
ENCODING 173
SWIDTH 366 0
DWIDTH 9 0
BBX 6 1 1 7
BITMAP
FC
ENDCHAR
STARTCHAR registered
ENCODING 174
SWIDTH 366 0
DWIDTH 9 0
BBX 7 12 1 1
BITMAP
FE
C6
C6
C6
C6
FE
C0
D0
C8
C8
C8
C4
ENDCHAR
STARTCHAR degree
ENCODING 176
SWIDTH 366 0
DWIDTH 9 0
BBX 3 2 3 11
BITMAP
E0
40
ENDCHAR
STARTCHAR plusminus
ENCODING 177
SWIDTH 366 0
DWIDTH 9 0
BBX 6 13 1 0
BITMAP
30
30
30
30
30
FC
30
30
30
30
30
00
FC
ENDCHAR
STARTCHAR acute
ENCODING 180
SWIDTH 366 0
DWIDTH 9 0
BBX 2 4 3 15
BITMAP
40
40
C0
80
ENDCHAR
STARTCHAR guillemotright
ENCODING 187
SWIDTH 366 0
DWIDTH 9 0
BBX 6 12 1 1
BITMAP
88
88
44
44
44
00
00
44
44
44
88
88
ENDCHAR
STARTCHAR questiondown
ENCODING 191
SWIDTH 366 0
DWIDTH 9 0
BBX 7 13 1 0
BITMAP
18
00
18
18
18
78
C0
C0
C0
C0
C0
C0
7E
ENDCHAR
STARTCHAR Agrave
ENCODING 192
SWIDTH 366 0
DWIDTH 9 0
BBX 7 18 1 1
BITMAP
20
30
10
10
00
00
FE
C6
C6
C6
C6
FE
C6
C6
C6
C6
C6
C6
ENDCHAR
STARTCHAR Aacute
ENCODING 193
SWIDTH 366 0
DWIDTH 9 0
BBX 7 18 1 1
BITMAP
10
10
10
20
00
00
FE
C6
C6
C6
C6
FE
C6
C6
C6
C6
C6
C6
ENDCHAR
STARTCHAR Acircumflex
ENCODING 194
SWIDTH 366 0
DWIDTH 9 0
BBX 7 18 1 1
BITMAP
20
30
48
88
00
00
FE
C6
C6
C6
C6
FE
C6
C6
C6
C6
C6
C6
ENDCHAR
STARTCHAR Atilde
ENCODING 195
SWIDTH 366 0
DWIDTH 9 0
BBX 7 16 1 1
BITMAP
18
30
00
00
FE
C6
C6
C6
C6
FE
C6
C6
C6
C6
C6
C6
ENDCHAR
STARTCHAR Adieresis
ENCODING 196
SWIDTH 366 0
DWIDTH 9 0
BBX 7 15 1 1
BITMAP
68
00
00
FE
C6
C6
C6
C6
FE
C6
C6
C6
C6
C6
C6
ENDCHAR
STARTCHAR Aring
ENCODING 197
SWIDTH 366 0
DWIDTH 9 0
BBX 7 17 1 1
BITMAP
10
28
10
00
00
FE
C6
C6
C6
C6
FE
C6
C6
C6
C6
C6
C6
ENDCHAR
STARTCHAR AE
ENCODING 198
SWIDTH 600 0
DWIDTH 14 0
BBX 13 13 1 0
BITMAP
FFF8
C600
C600
C600
C600
FFF8
C600
C600
C600
C600
C600
C600
01F8
ENDCHAR
STARTCHAR Egrave
ENCODING 200
SWIDTH 366 0
DWIDTH 9 0
BBX 7 19 0 0
BITMAP
10
18
08
08
00
00
FE
C0
C0
C0
C0
FE
C0
C0
C0
C0
C0
C0
7E
ENDCHAR
STARTCHAR Eacute
ENCODING 201
SWIDTH 366 0
DWIDTH 9 0
BBX 7 19 0 0
BITMAP
08
08
18
10
00
00
FE
C0
C0
C0
C0
FE
C0
C0
C0
C0
C0
C0
7E
ENDCHAR
STARTCHAR Ecircumflex
ENCODING 202
SWIDTH 366 0
DWIDTH 9 0
BBX 7 19 0 0
BITMAP
10
18
24
44
00
00
FE
C0
C0
C0
C0
FE
C0
C0
C0
C0
C0
C0
7E
ENDCHAR
STARTCHAR Edieresis
ENCODING 203
SWIDTH 366 0
DWIDTH 9 0
BBX 7 16 0 0
BITMAP
34
00
00
FE
C0
C0
C0
C0
FE
C0
C0
C0
C0
C0
C0
7E
ENDCHAR
STARTCHAR Igrave
ENCODING 204
SWIDTH 366 0
DWIDTH 9 0
BBX 2 18 3 1
BITMAP
80
C0
40
40
00
00
C0
C0
C0
C0
C0
00
00
C0
C0
C0
C0
C0
ENDCHAR
STARTCHAR Iacute
ENCODING 205
SWIDTH 366 0
DWIDTH 9 0
BBX 2 18 3 1
BITMAP
40
40
C0
80
00
00
C0
C0
C0
C0
C0
00
00
C0
C0
C0
C0
C0
ENDCHAR
STARTCHAR Icircumflex
ENCODING 206
SWIDTH 366 0
DWIDTH 9 0
BBX 4 18 2 1
BITMAP
40
60
90
90
00
00
60
60
60
60
60
00
00
60
60
60
60
60
ENDCHAR
STARTCHAR Idieresis
ENCODING 207
SWIDTH 366 0
DWIDTH 9 0
BBX 4 15 2 1
BITMAP
D0
00
00
60
60
60
60
60
00
00
60
60
60
60
60
ENDCHAR
STARTCHAR Ntilde
ENCODING 209
SWIDTH 366 0
DWIDTH 9 0
BBX 7 16 1 1
BITMAP
18
30
00
00
FE
C6
C6
C6
C6
82
C6
C6
C6
C6
C6
C6
ENDCHAR
STARTCHAR Ograve
ENCODING 210
SWIDTH 366 0
DWIDTH 9 0
BBX 7 19 1 0
BITMAP
20
10
10
10
00
00
FE
C6
C6
C6
C6
82
C6
C6
C6
C6
C6
C6
FC
ENDCHAR
STARTCHAR Oacute
ENCODING 211
SWIDTH 366 0
DWIDTH 9 0
BBX 7 19 1 0
BITMAP
10
10
10
20
00
00
FE
C6
C6
C6
C6
82
C6
C6
C6
C6
C6
C6
FC
ENDCHAR
STARTCHAR Ocircumflex
ENCODING 212
SWIDTH 366 0
DWIDTH 9 0
BBX 7 19 1 0
BITMAP
20
30
48
88
00
00
FE
C6
C6
C6
C6
82
C6
C6
C6
C6
C6
C6
FC
ENDCHAR
STARTCHAR Otilde
ENCODING 213
SWIDTH 366 0
DWIDTH 9 0
BBX 7 17 1 0
BITMAP
18
30
00
00
FE
C6
C6
C6
C6
82
C6
C6
C6
C6
C6
C6
FC
ENDCHAR
STARTCHAR Odieresis
ENCODING 214
SWIDTH 366 0
DWIDTH 9 0
BBX 7 16 1 0
BITMAP
68
00
00
FE
C6
C6
C6
C6
82
C6
C6
C6
C6
C6
C6
FC
ENDCHAR
STARTCHAR multiply
ENCODING 215
SWIDTH 366 0
DWIDTH 9 0
BBX 5 12 2 1
BITMAP
88
88
88
50
60
00
00
60
50
88
88
88
ENDCHAR
STARTCHAR Oslash
ENCODING 216
SWIDTH 366 0
DWIDTH 9 0
BBX 8 13 0 0
BITMAP
7F
C3
C3
C7
CB
89
C3
E3
E3
E3
C3
C3
7E
ENDCHAR
STARTCHAR Ugrave
ENCODING 217
SWIDTH 366 0
DWIDTH 9 0
BBX 7 19 1 0
BITMAP
20
10
10
10
00
00
C6
C6
C6
C6
C6
C6
C6
C6
C6
C6
C6
C6
FC
ENDCHAR
STARTCHAR Uacute
ENCODING 218
SWIDTH 366 0
DWIDTH 9 0
BBX 7 19 1 0
BITMAP
10
10
30
20
00
00
C6
C6
C6
C6
C6
C6
C6
C6
C6
C6
C6
C6
FC
ENDCHAR
STARTCHAR Ucircumflex
ENCODING 219
SWIDTH 366 0
DWIDTH 9 0
BBX 7 19 1 0
BITMAP
20
30
48
88
00
00
C6
C6
C6
C6
C6
C6
C6
C6
C6
C6
C6
C6
FC
ENDCHAR
STARTCHAR Udieresis
ENCODING 220
SWIDTH 366 0
DWIDTH 9 0
BBX 7 16 1 0
BITMAP
68
00
00
C6
C6
C6
C6
C6
C6
C6
C6
C6
C6
C6
C6
FC
ENDCHAR
STARTCHAR Yacute
ENCODING 221
SWIDTH 366 0
DWIDTH 10 0
BBX 8 18 1 1
BITMAP
10
10
30
20
00
00
C3
C3
C3
C3
C3
FF
00
18
18
18
18
18
ENDCHAR
STARTCHAR Thorn
ENCODING 222
SWIDTH 366 0
DWIDTH 9 0
BBX 7 17 1 -4
BITMAP
C0
C0
C0
C0
C0
FC
C6
C6
C6
C6
C6
C6
FC
C0
C0
C0
C0
ENDCHAR
STARTCHAR germandbls
ENCODING 223
SWIDTH 366 0
DWIDTH 9 0
BBX 7 17 1 -4
BITMAP
FE
C6
C6
C6
C6
9E
C6
C6
C6
C6
C6
C6
1C
C0
C0
C0
C0
ENDCHAR
STARTCHAR agrave
ENCODING 224
SWIDTH 366 0
DWIDTH 9 0
BBX 7 18 1 1
BITMAP
20
10
10
10
00
00
FE
C6
C6
C6
C6
FE
C6
C6
C6
C6
C6
C6
ENDCHAR
STARTCHAR aacute
ENCODING 225
SWIDTH 366 0
DWIDTH 9 0
BBX 7 18 1 1
BITMAP
10
10
30
20
00
00
FE
C6
C6
C6
C6
FE
C6
C6
C6
C6
C6
C6
ENDCHAR
STARTCHAR acircumflex
ENCODING 226
SWIDTH 366 0
DWIDTH 9 0
BBX 7 18 1 1
BITMAP
20
30
48
88
00
00
FE
C6
C6
C6
C6
FE
C6
C6
C6
C6
C6
C6
ENDCHAR
STARTCHAR atilde
ENCODING 227
SWIDTH 366 0
DWIDTH 9 0
BBX 7 16 1 1
BITMAP
18
30
00
00
FE
C6
C6
C6
C6
FE
C6
C6
C6
C6
C6
C6
ENDCHAR
STARTCHAR adieresis
ENCODING 228
SWIDTH 366 0
DWIDTH 9 0
BBX 7 15 1 1
BITMAP
68
00
00
FE
C6
C6
C6
C6
FE
C6
C6
C6
C6
C6
C6
ENDCHAR
STARTCHAR aring
ENCODING 229
SWIDTH 366 0
DWIDTH 9 0
BBX 7 17 1 1
BITMAP
10
28
10
00
00
FE
C6
C6
C6
C6
FE
C6
C6
C6
C6
C6
C6
ENDCHAR
STARTCHAR ae
ENCODING 230
SWIDTH 600 0
DWIDTH 14 0
BBX 13 13 1 0
BITMAP
FFF8
C600
C600
C600
C600
FFF8
C600
C600
C600
C600
C600
C600
01F8
ENDCHAR
STARTCHAR egrave
ENCODING 232
SWIDTH 366 0
DWIDTH 9 0
BBX 7 19 0 0
BITMAP
10
18
08
08
00
00
FE
C0
C0
C0
C0
FE
C0
C0
C0
C0
C0
C0
7E
ENDCHAR
STARTCHAR eacute
ENCODING 233
SWIDTH 366 0
DWIDTH 9 0
BBX 7 19 0 0
BITMAP
08
08
18
10
00
00
FE
C0
C0
C0
C0
FE
C0
C0
C0
C0
C0
C0
7E
ENDCHAR
STARTCHAR ecircumflex
ENCODING 234
SWIDTH 366 0
DWIDTH 9 0
BBX 7 19 0 0
BITMAP
10
18
24
44
00
00
FE
C0
C0
C0
C0
FE
C0
C0
C0
C0
C0
C0
7E
ENDCHAR
STARTCHAR edieresis
ENCODING 235
SWIDTH 366 0
DWIDTH 9 0
BBX 7 16 0 0
BITMAP
34
00
00
FE
C0
C0
C0
C0
FE
C0
C0
C0
C0
C0
C0
7E
ENDCHAR
STARTCHAR igrave
ENCODING 236
SWIDTH 366 0
DWIDTH 9 0
BBX 2 18 3 1
BITMAP
80
C0
40
40
00
00
C0
C0
C0
C0
C0
00
00
C0
C0
C0
C0
C0
ENDCHAR
STARTCHAR iacute
ENCODING 237
SWIDTH 366 0
DWIDTH 9 0
BBX 2 18 3 1
BITMAP
40
40
C0
80
00
00
C0
C0
C0
C0
C0
00
00
C0
C0
C0
C0
C0
ENDCHAR
STARTCHAR icircumflex
ENCODING 238
SWIDTH 366 0
DWIDTH 9 0
BBX 4 18 2 1
BITMAP
40
60
90
90
00
00
60
60
60
60
60
00
00
60
60
60
60
60
ENDCHAR
STARTCHAR idieresis
ENCODING 239
SWIDTH 366 0
DWIDTH 9 0
BBX 4 15 2 1
BITMAP
D0
00
00
60
60
60
60
60
00
00
60
60
60
60
60
ENDCHAR
STARTCHAR ntilde
ENCODING 241
SWIDTH 366 0
DWIDTH 9 0
BBX 7 16 1 1
BITMAP
18
30
00
00
FE
C6
C6
C6
C6
82
C6
C6
C6
C6
C6
C6
ENDCHAR
STARTCHAR ograve
ENCODING 242
SWIDTH 366 0
DWIDTH 9 0
BBX 7 19 1 0
BITMAP
20
10
10
10
00
00
FE
C6
C6
C6
C6
82
C6
C6
C6
C6
C6
C6
FC
ENDCHAR
STARTCHAR oacute
ENCODING 243
SWIDTH 366 0
DWIDTH 9 0
BBX 7 19 1 0
BITMAP
10
10
30
20
00
00
FE
C6
C6
C6
C6
82
C6
C6
C6
C6
C6
C6
FC
ENDCHAR
STARTCHAR ocircumflex
ENCODING 244
SWIDTH 366 0
DWIDTH 9 0
BBX 7 19 1 0
BITMAP
20
30
48
88
00
00
FE
C6
C6
C6
C6
82
C6
C6
C6
C6
C6
C6
FC
ENDCHAR
STARTCHAR otilde
ENCODING 245
SWIDTH 366 0
DWIDTH 9 0
BBX 7 17 1 0
BITMAP
18
30
00
00
FE
C6
C6
C6
C6
82
C6
C6
C6
C6
C6
C6
FC
ENDCHAR
STARTCHAR odieresis
ENCODING 246
SWIDTH 366 0
DWIDTH 9 0
BBX 7 16 1 0
BITMAP
68
00
00
FE
C6
C6
C6
C6
82
C6
C6
C6
C6
C6
C6
FC
ENDCHAR
STARTCHAR divide
ENCODING 247
SWIDTH 366 0
DWIDTH 9 0
BBX 6 6 1 4
BITMAP
30
00
FC
00
00
30
ENDCHAR
STARTCHAR oslash
ENCODING 248
SWIDTH 366 0
DWIDTH 9 0
BBX 8 13 0 0
BITMAP
7F
C3
C3
C7
CB
89
C3
E3
E3
E3
C3
C3
7E
ENDCHAR
STARTCHAR ugrave
ENCODING 249
SWIDTH 366 0
DWIDTH 9 0
BBX 7 19 1 0
BITMAP
20
10
10
10
00
00
C6
C6
C6
C6
C6
C6
C6
C6
C6
C6
C6
C6
FC
ENDCHAR
STARTCHAR uacute
ENCODING 250
SWIDTH 366 0
DWIDTH 9 0
BBX 7 19 1 0
BITMAP
10
10
30
20
00
00
C6
C6
C6
C6
C6
C6
C6
C6
C6
C6
C6
C6
FC
ENDCHAR
STARTCHAR ucircumflex
ENCODING 251
SWIDTH 366 0
DWIDTH 9 0
BBX 7 19 1 0
BITMAP
20
30
48
88
00
00
C6
C6
C6
C6
C6
C6
C6
C6
C6
C6
C6
C6
FC
ENDCHAR
STARTCHAR udieresis
ENCODING 252
SWIDTH 366 0
DWIDTH 9 0
BBX 7 16 1 0
BITMAP
68
00
00
C6
C6
C6
C6
C6
C6
C6
C6
C6
C6
C6
C6
FC
ENDCHAR
STARTCHAR yacute
ENCODING 253
SWIDTH 366 0
DWIDTH 10 0
BBX 8 18 1 1
BITMAP
08
18
10
20
00
00
C3
C3
C3
C3
C3
FF
00
18
18
18
18
18
ENDCHAR
STARTCHAR thorn
ENCODING 254
SWIDTH 366 0
DWIDTH 9 0
BBX 7 17 1 -4
BITMAP
C0
C0
C0
C0
C0
FC
C6
C6
C6
C6
C6
C6
FC
C0
C0
C0
C0
ENDCHAR
STARTCHAR ydieresis
ENCODING 255
SWIDTH 366 0
DWIDTH 10 0
BBX 8 15 1 1
BITMAP
68
00
00
C3
C3
C3
C3
C3
FF
00
18
18
18
18
18
ENDCHAR
STARTCHAR OE.dup1
ENCODING 338
SWIDTH 600 0
DWIDTH 14 0
BBX 13 13 1 0
BITMAP
FFF8
C600
C600
C600
C600
83F8
C600
C600
C600
C600
C600
C600
FDF8
ENDCHAR
STARTCHAR oe.dup2
ENCODING 339
SWIDTH 600 0
DWIDTH 14 0
BBX 13 13 1 0
BITMAP
FFF8
C600
C600
C600
C600
83F8
C600
C600
C600
C600
C600
C600
FDF8
ENDCHAR
STARTCHAR Scaron.dup3
ENCODING 352
SWIDTH 366 0
DWIDTH 9 0
BBX 7 19 1 0
BITMAP
88
48
30
20
00
00
FC
C0
C0
C0
C0
FC
06
06
06
06
06
06
FC
ENDCHAR
STARTCHAR scaron.dup4
ENCODING 353
SWIDTH 366 0
DWIDTH 9 0
BBX 7 19 1 0
BITMAP
88
48
30
20
00
00
FC
C0
C0
C0
C0
FC
06
06
06
06
06
06
FC
ENDCHAR
STARTCHAR Ydieresis.dup5
ENCODING 376
SWIDTH 366 0
DWIDTH 10 0
BBX 8 15 1 1
BITMAP
68
00
00
C3
C3
C3
C3
C3
FF
00
18
18
18
18
18
ENDCHAR
STARTCHAR circumflex.dup6
ENCODING 710
SWIDTH 366 0
DWIDTH 9 0
BBX 4 4 2 15
BITMAP
40
60
90
90
ENDCHAR
STARTCHAR caron
ENCODING 711
SWIDTH 366 0
DWIDTH 9 0
BBX 4 4 2 15
BITMAP
90
90
60
40
ENDCHAR
STARTCHAR ring
ENCODING 730
SWIDTH 366 0
DWIDTH 9 0
BBX 3 3 3 15
BITMAP
40
A0
40
ENDCHAR
STARTCHAR tilde.dup7
ENCODING 732
SWIDTH 366 0
DWIDTH 9 0
BBX 3 2 3 15
BITMAP
60
C0
ENDCHAR
STARTCHAR endash.dup8
ENCODING 8211
SWIDTH 366 0
DWIDTH 9 0
BBX 3 1 1 7
BITMAP
E0
ENDCHAR
STARTCHAR emdash.dup9
ENCODING 8212
SWIDTH 366 0
DWIDTH 9 0
BBX 6 1 1 7
BITMAP
FC
ENDCHAR
STARTCHAR quoteleft.dup10
ENCODING 8216
SWIDTH 366 0
DWIDTH 9 0
BBX 1 1 4 12
BITMAP
80
ENDCHAR
STARTCHAR quoteright.dup11
ENCODING 8217
SWIDTH 366 0
DWIDTH 9 0
BBX 1 1 4 12
BITMAP
80
ENDCHAR
STARTCHAR quotesinglbase.dup12
ENCODING 8218
SWIDTH 366 0
DWIDTH 9 0
BBX 1 2 4 -1
BITMAP
80
80
ENDCHAR
STARTCHAR quotedblleft.dup13
ENCODING 8220
SWIDTH 366 0
DWIDTH 9 0
BBX 3 1 3 12
BITMAP
E0
ENDCHAR
STARTCHAR quotedblright.dup14
ENCODING 8221
SWIDTH 366 0
DWIDTH 9 0
BBX 3 1 3 12
BITMAP
E0
ENDCHAR
STARTCHAR quotedblbase.dup15
ENCODING 8222
SWIDTH 366 0
DWIDTH 9 0
BBX 3 2 3 -1
BITMAP
E0
A0
ENDCHAR
STARTCHAR ellipsis.dup16
ENCODING 8230
SWIDTH 366 0
DWIDTH 9 0
BBX 5 1 2 0
BITMAP
A8
ENDCHAR
STARTCHAR perthousand.dup17
ENCODING 8240
SWIDTH 366 0
DWIDTH 9 0
BBX 6 13 2 0
BITMAP
C0
88
08
08
10
20
00
40
40
80
C8
AC
4C
ENDCHAR
STARTCHAR guilsinglleft.dup18
ENCODING 8249
SWIDTH 366 0
DWIDTH 9 0
BBX 2 12 3 1
BITMAP
40
40
40
80
80
00
00
80
80
40
40
40
ENDCHAR
STARTCHAR guilsinglright.dup19
ENCODING 8250
SWIDTH 366 0
DWIDTH 9 0
BBX 2 12 3 1
BITMAP
80
80
40
40
40
00
00
40
40
40
80
80
ENDCHAR
STARTCHAR euro
ENCODING 8364
SWIDTH 366 0
DWIDTH 9 0
BBX 7 13 0 0
BITMAP
FE
C0
C0
C0
F8
80
C0
F0
F0
C0
C0
C0
7E
ENDCHAR
STARTCHAR .notdef
ENCODING -1
SWIDTH 500 0
DWIDTH 12 0
BBX 1 1 0 0
BITMAP
00
ENDCHAR
STARTCHAR .null
ENCODING -1
SWIDTH 0 0
DWIDTH 0 0
BBX 1 1 0 0
BITMAP
00
ENDCHAR
STARTCHAR nonmarkingreturn
ENCODING -1
SWIDTH 366 0
DWIDTH 9 0
BBX 1 1 0 0
BITMAP
00
ENDCHAR
ENDFONT
